<svg xmlns="http://www.w3.org/2000/svg" width="22.706" height="28.383" viewBox="0 0 22.706 28.383">
  <path id="shopping_bag_FILL0_wght400_GRAD0_opsz24" d="M162.838-851.617a2.733,2.733,0,0,1-2-.834,2.733,2.733,0,0,1-.834-2v-17.03a2.733,2.733,0,0,1,.834-2,2.733,2.733,0,0,1,2-.834h2.838a5.466,5.466,0,0,1,1.667-4.009A5.467,5.467,0,0,1,171.353-880a5.466,5.466,0,0,1,4.009,1.667,5.466,5.466,0,0,1,1.667,4.009h2.838a2.733,2.733,0,0,1,2,.834,2.733,2.733,0,0,1,.834,2v17.03a2.733,2.733,0,0,1-.834,2,2.733,2.733,0,0,1-2,.834Zm0-2.838h17.03v-17.03H177.03v2.838a1.373,1.373,0,0,1-.408,1.011,1.373,1.373,0,0,1-1.011.408,1.373,1.373,0,0,1-1.011-.408,1.373,1.373,0,0,1-.408-1.011v-2.838h-5.677v2.838a1.373,1.373,0,0,1-.408,1.011,1.373,1.373,0,0,1-1.011.408,1.373,1.373,0,0,1-1.011-.408,1.373,1.373,0,0,1-.408-1.011v-2.838h-2.838Zm5.677-19.868h5.677a2.733,2.733,0,0,0-.834-2,2.733,2.733,0,0,0-2-.834,2.733,2.733,0,0,0-2,.834A2.733,2.733,0,0,0,168.515-874.323Zm-5.677,19.868v0Z" transform="translate(-160 880)" fill="#fff"/>
</svg>
